USFL
nRows=145
nColumns=2
inDegrees=yes
endheader
time	tib_ant_r	
4.36565	 61.776613	
4.43722	 61.877961	
4.50878	 62.248402	
4.58035	 62.248855	
4.65192	 62.267207	
4.72349	 61.978470	
4.79506	 61.846711	
4.86662	 61.741887	
4.93819	 61.739642	
5.00976	 61.653122	
5.08133	 61.658905	
5.1529	 61.481279	
5.22446	 61.352554	
5.29603	 61.335938	
5.3676	 61.300922	
5.43917	 61.258633	
5.51074	 61.282338	
5.5823	 61.173053	
5.65387	 60.923072	
5.72544	 60.856535	
5.79701	 60.844692	
5.86858	 60.784220	
5.94014	 60.697407	
6.01171	 60.646671	
6.08328	 60.582398	
6.15485	 60.439901	
6.22642	 60.388380	
6.29798	 60.405279	
6.36955	 60.348540	
6.44112	 60.482595	
6.51269	 60.356962	
6.58426	 60.355310	
6.65582	 60.174646	
6.72739	 60.145275	
6.79896	 60.121334	
6.87053	 60.146443	
6.9421	 60.189730	
7.01366	 60.243832	
7.08523	 60.295592	
7.1568	 60.370511	
7.22837	 60.471513	
7.29994	 60.420901	
7.3715	 60.272746	
7.44307	 60.214275	
7.51464	 60.189443	
7.58621	 60.157992	
7.65778	 60.204258	
7.72934	 60.217795	
7.80091	 60.187238	
7.87248	 60.250995	
7.94405	 60.252909	
8.01562	 60.344614	
8.08718	 60.399251	
8.15875	 60.490920	
8.23032	 60.545826	
8.30189	 60.553098	
8.37346	 60.496462	
8.44502	 60.552383	
8.51659	 60.543355	
8.58816	 60.563310	
8.65973	 60.714898	
8.7313	 60.631794	
8.80286	 60.655499	
8.87443	 60.723457	
8.946	 60.709981	
9.01757	 60.699595	
9.08914	 60.672807	
9.1607	 60.671017	
9.23227	 60.673966	
9.30384	 60.623572	
9.37541	 60.705445	
9.44698	 60.663978	
9.51854	 60.546638	
9.59011	 60.596623	
9.66168	 60.771113	
9.73325	 60.843165	
9.80482	 60.745464	
9.87638	 60.709381	
9.94795	 60.617187	
10.0195	 60.788682	
10.0911	 60.805076	
10.1627	 60.657874	
10.2342	 60.657643	
10.3058	 60.719354	
10.3774	 60.771584	
10.4489	 60.779540	
10.5205	 60.772752	
10.5921	 60.915851	
10.6636	 60.887411	
10.7352	 60.827736	
10.8068	 60.699055	
10.8783	 60.682258	
10.9499	 60.671453	
11.0215	 60.699624	
11.093	 60.743774	
11.1646	 60.777091	
11.2362	 60.933855	
11.3077	 60.992693	
11.3793	 61.133087	
11.4509	 61.164899	
11.5224	 60.972314	
11.594	 61.007703	
11.6656	 61.024745	
11.7372	 61.049561	
11.8087	 61.059166	
11.8803	 61.123212	
11.9519	 61.097744	
12.0234	 61.041282	
12.095	 61.115914	
12.1666	 61.150853	
12.2381	 61.150119	
12.3097	 61.015616	
12.3813	 61.087708	
12.4528	 61.138556	
12.5244	 61.143937	
12.596	 61.072151	
12.6675	 61.041881	
12.7391	 61.009215	
12.8107	 61.005626	
12.8822	 60.932018	
12.9538	 61.018578	
13.0254	 61.057238	
13.0969	 61.070964	
13.1685	 61.091699	
13.2401	 61.015118	
13.3116	 61.008678	
13.3832	 60.978598	
13.4548	 61.156023	
13.5264	 61.416490	
13.5979	 61.625718	
13.6695	 61.811268	
13.7411	 61.825735	
13.8126	 62.028860	
13.8842	 61.978920	
13.9558	 61.785922	
14.0273	 61.641815	
14.0989	 61.570314	
14.1705	 61.975079	
14.242	 62.427004	
14.3136	 62.434318	
14.3852	 62.411316	
14.4567	 62.442491	
14.5283	 62.493458	
14.5999	 62.378379	
14.6714	 62.441051	
